<?xml version="1.0" encoding="UTF-8" standalone="no"?>
<!-- Created with Inkscape (http://www.inkscape.org/) -->

<svg
   width="22.569038mm"
   height="11.27373mm"
   viewBox="0 0 45.138077 22.547461"
   version="1.1"
   id="svg1"
   inkscape:export-filename="растровый.svg"
   inkscape:export-xdpi="96"
   inkscape:export-ydpi="96"
   inkscape:version="1.3.2 (091e20e, 2023-11-25, custom)"
   sodipodi:docname="logo.svg"
   xmlns:inkscape="http://www.inkscape.org/namespaces/inkscape"
   xmlns:sodipodi="http://sodipodi.sourceforge.net/DTD/sodipodi-0.dtd"
   xmlns:xlink="http://www.w3.org/1999/xlink"
   xmlns="http://www.w3.org/2000/svg"
   xmlns:svg="http://www.w3.org/2000/svg">
  <sodipodi:namedview
     id="namedview1"
     pagecolor="#ffffff"
     bordercolor="#000000"
     borderopacity="0.21960784"
     inkscape:showpageshadow="2"
     inkscape:pageopacity="0.0"
     inkscape:pagecheckerboard="0"
     inkscape:deskcolor="#d1d1d1"
     inkscape:document-units="mm"
     inkscape:zoom="5.6568543"
     inkscape:cx="93.338094"
     inkscape:cy="64.611882"
     inkscape:window-width="1920"
     inkscape:window-height="1017"
     inkscape:window-x="1912"
     inkscape:window-y="-8"
     inkscape:window-maximized="1"
     inkscape:current-layer="layer1"
     inkscape:export-bgcolor="#ffffff00"
     showguides="true" />
  <defs
     id="defs1">
    <pattern
       inkscape:collect="always"
       xlink:href="#pattern6-7"
       preserveAspectRatio="xMidYMid"
       id="pattern11"
       patternTransform="translate(190,350)" />
    <pattern
       patternUnits="userSpaceOnUse"
       width="29"
       height="20"
       patternTransform="translate(190,350)"
       preserveAspectRatio="xMidYMid"
       style="fill:#000000"
       id="pattern6-7"
       inkscape:label=""
       inkscape:collect="always"
       inkscape:isstock="true">
      <path
         style="fill:none;stroke:#000000;stroke-width:10;stroke-linecap:butt;stroke-dasharray:none;paint-order:stroke markers fill;stop-color:#000000"
         d="M 0,5 C 19,5 10,15 29,15"
         id="path4-2"
         sodipodi:nodetypes="cc" />
    </pattern>
    <linearGradient
       id="linearGradient4"
       inkscape:collect="always">
      <stop
         style="stop-color:#000000;stop-opacity:1;"
         offset="0"
         id="stop4" />
      <stop
         style="stop-color:#000000;stop-opacity:0;"
         offset="1"
         id="stop5" />
    </linearGradient>
    <rect
       x="263.88101"
       y="382.83255"
       width="288.49167"
       height="218.76144"
       id="rect1" />
    <linearGradient
       inkscape:collect="always"
       xlink:href="#linearGradient4"
       id="linearGradient5"
       x1="66.555054"
       y1="107.30998"
       x2="103.94135"
       y2="107.30998"
       gradientUnits="userSpaceOnUse" />
  </defs>
  <g
     inkscape:label="Слой 1"
     inkscape:groupmode="layer"
     id="layer1"
     transform="translate(-81.24953,-76.467166)">
    <path
       d="m 116.95152,91.071444 h -3.19981 v 3.949629 c 0,0.777213 -0.0579,1.397332 -0.17363,1.860352 -0.0992,0.446484 -0.24805,0.785482 -0.44648,1.016992 -0.19844,0.214974 -0.45476,0.355534 -0.76895,0.42168 -0.29766,0.04961 -0.64492,0.07441 -1.0418,0.07441 h -0.79375 v 0.620117 h 9.64903 v -0.620117 h -0.79375 c -0.54571,0 -1.05007,-0.132292 -1.51309,-0.396875 -0.19844,-0.115755 -0.3638,-0.231511 -0.49609,-0.347266 -0.11576,-0.132291 -0.20671,-0.305924 -0.27285,-0.520898 -0.0662,-0.214974 -0.10749,-0.487826 -0.12403,-0.818555 -0.0165,-0.330729 -0.0248,-0.760677 -0.0248,-1.289844 z"
       style="font-size:192px;font-family:'Microsoft Himalaya';-inkscape-font-specification:'Microsoft Himalaya, Normal';white-space:pre;shape-inside:url(#rect1);display:inline;opacity:1;fill:#ececec;stroke-width:1.00157"
       id="path22" />
    <path
       d="m 113.75171,85.102816 h 3.19981 v -4.642094 c 0,-0.760676 0.0496,-1.364258 0.14883,-1.810742 0.11575,-0.463021 0.27285,-0.802019 0.47128,-1.016993 0.19844,-0.23151 0.44649,-0.380338 0.74415,-0.446484 0.31419,-0.06615 0.66972,-0.09922 1.0666,-0.09922 h 0.79375 v -0.620117 h -9.64903 v 0.620117 h 0.79375 c 0.52917,0 1.0418,0.132292 1.53789,0.396875 0.19844,0.115755 0.35554,0.239779 0.47129,0.372071 0.11576,0.115755 0.19844,0.28112 0.24805,0.496093 0.0661,0.214974 0.10749,0.496095 0.12402,0.84336 0.0331,0.330729 0.0496,0.752409 0.0496,1.265039 z"
       style="font-size:192px;font-family:'Microsoft Himalaya';-inkscape-font-specification:'Microsoft Himalaya, Normal';white-space:pre;shape-inside:url(#rect1);display:inline;opacity:1;fill:#ececec;stroke-width:1.00157"
       id="path21" />
    <path
       d="m 102.40357,85.102816 h 1.54047 l 1.94459,-4.741313 c 0.19843,-0.479557 0.39687,-0.901237 0.59531,-1.265039 0.19844,-0.380338 0.42168,-0.7028 0.66973,-0.967383 0.26458,-0.264583 0.56224,-0.479557 0.89296,-0.644922 0.33073,-0.181901 0.73588,-0.314192 1.21543,-0.396875 v -0.620117 h -6.94531 v 0.620117 c 0.87643,0.115755 1.49655,0.33073 1.86035,0.644922 0.36381,0.297656 0.54571,0.620118 0.54571,0.967383 0,0.479557 -0.26459,1.364259 -0.79375,2.654102 z"
       style="font-size:192px;font-family:'Microsoft Himalaya';-inkscape-font-specification:'Microsoft Himalaya, Normal';white-space:pre;shape-inside:url(#rect1);display:inline;opacity:1;fill:#ececec;stroke-width:1.00157"
       id="path20" />
    <path
       d="m 93.730423,91.071443 3.448885,7.943184 h 1.059884 l 3.257678,-7.943184 h -1.52135 l -1.35444,3.329512 -1.445906,-3.329512 z"
       style="font-size:192px;font-family:'Microsoft Himalaya';-inkscape-font-specification:'Microsoft Himalaya, Normal';white-space:pre;shape-inside:url(#rect1);display:inline;opacity:1;fill:#ececec;stroke-width:1.00157"
       id="path25" />
    <path
       d="m 85.399955,76.467167 v 0.620117 c 0.529166,0.04961 0.967383,0.124024 1.314649,0.223243 0.347265,0.08268 0.644922,0.23151 0.892968,0.446484 0.248047,0.214974 0.47129,0.51263 0.669727,0.892969 0.214974,0.363801 0.446485,0.851628 0.694531,1.463476 l 2.166276,4.98936 h 3.445268 l -1.692403,-3.897954 c -0.51263,-1.174087 -0.768945,-2.042253 -0.768945,-2.604492 0,-0.198437 0.0248,-0.37207 0.07441,-0.520898 0.06615,-0.165365 0.181901,-0.314193 0.347265,-0.446485 0.181901,-0.132291 0.438217,-0.239778 0.768946,-0.32246 0.330728,-0.09922 0.760677,-0.173633 1.289843,-0.223243 v -0.620117 z"
       style="font-size:192px;font-family:'Microsoft Himalaya';-inkscape-font-specification:'Microsoft Himalaya, Normal';white-space:pre;shape-inside:url(#rect1);display:inline;opacity:1;fill:#ececec;stroke-width:1.00157"
       id="path18" />
    <text
       xml:space="preserve"
       style="font-size:3.86664px;opacity:1;fill:#ececec;fill-opacity:1;fill-rule:nonzero;stroke:none;stroke-width:0.322;stroke-dasharray:none;stroke-opacity:1"
       x="66.605919"
       y="109.09316"
       id="text2"
       transform="scale(1.2178388,0.82112673)"><tspan
         sodipodi:role="line"
         id="tspan2"
         style="font-style:normal;font-variant:normal;font-weight:300;font-stretch:normal;font-size:5.64444px;font-family:Calibri;-inkscape-font-specification:'Calibri, Light';font-variant-ligatures:normal;font-variant-position:normal;font-variant-caps:normal;font-variant-numeric:normal;font-variant-east-asian:normal;fill:#ececec;fill-opacity:1;fill-rule:nonzero;stroke:none;stroke-width:0.322;stroke-dasharray:none;stroke-opacity:1"
         x="66.605919"
         y="109.09316">VADIM IVANKOV</tspan></text>
  </g>
</svg>
