<svg width="349" height="414" xmlns="http://www.w3.org/2000/svg">
 <g>
  <title>Layer 1</title>
  <path fill="#333333" stroke="#000" stroke-width="0" d="m462.756,163.19628c-0.00872,-0.00847 -0.01813,-0.01526 -0.02584,-0.01618c-0.00042,-0.00006 -0.00086,-0.0001 -0.00132,-0.00011l-0.05078,0c-0.00081,0 -0.00161,0.00032 -0.00218,0.0009c-0.00057,0.00057 -0.0009,0.00137 -0.0009,0.00219l0,0.12875c0,0.00081 0.00032,0.00159 0.0009,0.00218c0.00059,0.00058 0.00136,0.0009 0.00218,0.0009l0.09182,0c0.00081,0 0.00159,-0.00031 0.00217,-0.0009c0.00059,-0.00059 0.00091,-0.00136 0.00091,-0.00218l0,-0.08568c-0.00018,-0.00995 -0.00797,-0.02079 -0.01697,-0.02988l0.00001,0.00001zm0.0108,0.11246l-0.08566,0l0,-0.12259l0.04771,0l0,0.00001c0.00208,-0.00013 0.00388,0.00193 0.00525,0.00663c0.00125,0.00448 0.00157,0.01031 0.00156,0.01436c0.00001,0.00297 -0.00014,0.00496 -0.00014,0.00496l-0.00025,0.00326l0.00328,0.00004c0.00002,0 0.00758,0.00009 0.015,0.00178c0.00713,0.00154 0.01271,0.00461 0.01323,0.00809c0.00002,0.00031 0.00003,0.00062 0.00002,0.00091l0,0.08258l-0.00001,0l0.00001,-0.00003z" id="svg_5"/>
  <path fill="#333333" stroke="#000" stroke-width="0" d="m490.616,140.31128c-0.00872,-0.00847 -0.01813,-0.01526 -0.02584,-0.01618c-0.00042,-0.00006 -0.00086,-0.0001 -0.00132,-0.00011l-0.05078,0c-0.00081,0 -0.00161,0.00032 -0.00218,0.0009c-0.00057,0.00057 -0.0009,0.00137 -0.0009,0.00219l0,0.12875c0,0.00081 0.00032,0.00159 0.0009,0.00218c0.00059,0.00058 0.00136,0.0009 0.00218,0.0009l0.09182,0c0.00081,0 0.00159,-0.00031 0.00217,-0.0009c0.00059,-0.00059 0.00091,-0.00136 0.00091,-0.00218l0,-0.08568c-0.00018,-0.00995 -0.00797,-0.02079 -0.01697,-0.02988l0.00001,0.00001zm0.0108,0.11246l-0.08566,0l0,-0.12259l0.04771,0l0,0.00001c0.00208,-0.00013 0.00388,0.00193 0.00525,0.00663c0.00125,0.00448 0.00157,0.01031 0.00156,0.01436c0.00001,0.00297 -0.00014,0.00496 -0.00014,0.00496l-0.00025,0.00326l0.00328,0.00004c0.00002,0 0.00758,0.00009 0.015,0.00178c0.00713,0.00154 0.01271,0.00461 0.01323,0.00809c0.00002,0.00031 0.00003,0.00062 0.00002,0.00091l0,0.08258l-0.00001,0l0.00001,-0.00003z" id="svg_6"/>
  <path fill="#333333" stroke="#000" stroke-width="0" d="m479.671,232.84628c-0.00872,-0.00847 -0.01813,-0.01526 -0.02584,-0.01618c-0.00042,-0.00006 -0.00086,-0.0001 -0.00132,-0.00011l-0.05078,0c-0.00081,0 -0.00161,0.00032 -0.00218,0.0009c-0.00057,0.00057 -0.0009,0.00137 -0.0009,0.00219l0,0.12875c0,0.00081 0.00032,0.00159 0.0009,0.00218c0.00059,0.00058 0.00136,0.0009 0.00218,0.0009l0.09182,0c0.00081,0 0.00159,-0.00031 0.00217,-0.0009c0.00059,-0.00059 0.00091,-0.00136 0.00091,-0.00218l0,-0.08568c-0.00018,-0.00995 -0.00797,-0.02079 -0.01697,-0.02988l0.00001,0.00001zm0.0108,0.11246l-0.08566,0l0,-0.12259l0.04771,0l0,0.00001c0.00208,-0.00013 0.00388,0.00193 0.00525,0.00663c0.00125,0.00448 0.00157,0.01031 0.00156,0.01436c0.00001,0.00297 -0.00014,0.00496 -0.00014,0.00496l-0.00025,0.00326l0.00328,0.00004c0.00002,0 0.00758,0.00009 0.015,0.00178c0.00713,0.00154 0.01271,0.00461 0.01323,0.00809c0.00002,0.00031 0.00003,0.00062 0.00002,0.00091l0,0.08258l-0.00001,0l0.00001,-0.00003z" id="svg_7"/>
  <text stroke-width="0.1" transform="matrix(9.10033 0 0 9.13335 -2539.64 -1770.33)" stroke="#999999" font-style="normal" font-weight="bold" xml:space="preserve" text-anchor="start" font-family="'Brygada 1918'" font-size="27" id="svg_3" y="227.83957" x="284.33392" fill="#ffffff">JY</text>
  <path stroke="#000" id="svg_4" d="m290.5145,48.95871c-31.59421,-26.2441 -65.67029,-47.26726 -93.62319,-50.13335c-1.52174,-0.18591 -3.09783,-0.29436 -4.76449,-0.32534l-183.9674,0c-2.93478,0 -5.83333,0.97602 -7.89855,2.78863c-2.0471,1.76613 -3.26087,4.24491 -3.26087,6.77017l0,398.92889c0,2.50977 1.1413,4.91109 3.26087,6.73919c2.11957,1.79712 4.90942,2.77314 7.89855,2.77314l332.68118,0c2.93478,0 5.74275,-0.96053 7.86232,-2.77314c2.11957,-1.81261 3.2971,-4.21393 3.2971,-6.73919l0,-265.462c-0.65217,-30.81435 -28.87681,-64.41733 -61.48551,-92.56699zm39.13044,348.43921l-310.36234,0l0,-379.84227l172.86233,0l0,0.03098c7.53623,-0.38731 14.03986,5.98006 19.02174,20.5429c4.52899,13.86568 5.67029,31.9453 5.65217,44.47863c0.03623,9.18698 -0.48913,15.35295 -0.48913,15.35295l-0.88768,10.10103l11.88406,0.10845c0.05435,0 27.46377,0.27886 54.34783,5.4998c25.83334,4.77165 46.03261,14.28398 47.91667,25.05118c0.07246,0.96053 0.09058,1.92106 0.07246,2.81961l0,255.85672l-0.01812,0z" stroke-width="0" fill="#999999"/>
  <path id="svg_11" d="m-399.50003,-109.00003" opacity="NaN" stroke-width="0" stroke="#000" fill="#666666"/>
 </g>

</svg>